<svg xmlns="http://www.w3.org/2000/svg" width="2050" height="400" viewBox="0 0 542.396 105.833">
  <path d="M29.068 51.71s-.41-28.121.256-29.586c.666-1.466 22.03-17.121 23.389-17.14 1.359-.019 23 15.04 23.693 16.487.693 1.446.305 30.147.305 30.147" style="fill:none;fill-opacity:.2;stroke:#d60084;stroke-width:8.38734"/>
  <path d="M31.411 30.738h42.88v.24h-42.88z" style="fill:none;fill-opacity:.2;stroke:#d60084;stroke-width:7.98456;stroke-opacity:1"/>
  <path d="M29.068 51.71s-.41-28.121.256-29.586c.666-1.466 22.03-17.121 23.389-17.14 1.359-.019 23 15.04 23.693 16.487.693 1.446.305 30.147.305 30.147" style="fill:none;fill-opacity:.2;stroke:#d60084;stroke-width:8.38734" transform="translate(-23.746 53.147)"/>
  <path d="M31.411 30.738h42.88v.24h-42.88z" style="fill:none;fill-opacity:.2;stroke:#d60084;stroke-width:7.98456;stroke-opacity:1" transform="translate(-23.746 53.147)"/>
  <path d="M29.068 51.71s-.41-28.121.256-29.586c.666-1.466 22.03-17.121 23.389-17.14 1.359-.019 23 15.04 23.693 16.487.693 1.446.305 30.147.305 30.147" style="fill:none;fill-opacity:.2;stroke:#d60084;stroke-width:8.38734" transform="translate(23.751 53.195)"/>
  <path d="M31.411 30.738h42.88v.24h-42.88z" style="fill:none;fill-opacity:.2;stroke:#d60084;stroke-width:7.98456;stroke-opacity:1" transform="translate(23.751 53.195)"/>
  <g style="fill:#ccc;fill-opacity:1">
    <path d="M78.847 80.187a272.95 272.95 0 0 1-1.689-4.168l-1.425-3.571-4.752-.133-4.752-.132.528-1.389.529-1.39h3.668c2.2 0 3.67-.102 3.67-.256 0-.142-.793-2.255-1.76-4.697-.968-2.441-1.762-4.563-1.764-4.715-.003-.151.33-1.15.737-2.217.871-2.28.645-2.507 2.835 2.84.876 2.137 2.548 6.208 3.716 9.046 1.167 2.838 2.694 6.558 3.393 8.268l1.27 3.109h-1.97c-1.79 0-1.995-.055-2.234-.595zm-22.857 0c.18-.565 4.595-11.368 9.111-22.291a524.185 524.185 0 0 0 2.354-5.755c.259-.682.375-.728 1.863-.728h1.588l-.759 2.05c-.78 2.113-4.419 11.45-8.402 21.564l-2.266 5.755h-1.838c-1.787 0-1.834-.017-1.65-.595z" style="fill:#666;fill-opacity:1" transform="translate(73.65 -95.009) scale(2.23944)"/>
    <path d="M181.015 55.527v-4.63h19.844v3.44h-15.875v5.82h-3.969zm0 13.241v-4.906h17.728v3.175H185l-.074 3.241-.074 3.241-1.918.078-1.919.077zm0 10.31v-1.722h20.399l-.08 1.653-.078 1.654-10.12.07-10.12.068z" style="fill:#666;fill-opacity:1" transform="translate(80.391 -94.335) scale(2.23944)"/>
    <path d="M160.49 74.445c-.476-1.116-5.736-13.965-7.9-19.3-.853-2.101-1.551-3.917-1.551-4.034 0-.118.863-.213 1.918-.211l1.918.002 1.644 4.164c5.418 13.734 6.186 15.808 6.05 16.35-.08.315-.49 1.335-.914 2.264l-.77 1.69zm2.583 6.079c-.092-.15.439-1.727 1.179-3.506.74-1.779 3.357-8.354 5.814-14.611l4.468-11.377 2.044-.078c1.59-.061 2.013-.002 1.905.264a16226.56 16226.56 0 0 0-7.728 18.863 1372.12 1372.12 0 0 1-3.895 9.46l-.54 1.256h-1.54c-.846 0-1.614-.122-1.707-.271z" style="fill:#666;fill-opacity:1" transform="translate(77.02 -94.335) scale(2.23944)"/>
    <path d="M142.067 65.846V50.874l1.919.078 1.918.077v29.634l-1.918.077-1.919.078z" style="fill:#666;fill-opacity:1" transform="translate(80.391 -94.335) scale(2.23944)"/>
    <path d="M135.407 74.048v-6.747h-12.964v-3.44h12.964V50.898h3.704v29.898h-3.704zm-20.108-8.202V50.897h3.704v29.898h-3.704z" style="fill:#666;fill-opacity:1" transform="translate(76.346 -94.335) scale(2.23944)"/>
    <path d="M108.434 79.988c-.218-.473-1.02-2.408-1.783-4.3l-1.387-3.44-4.695-.072c-2.582-.04-4.695-.142-4.695-.229 0-.086.206-.738.459-1.449l.459-1.292h3.774c2.076 0 3.774-.036 3.774-.08 0-.043-.833-2.15-1.852-4.683-1.018-2.532-1.852-4.72-1.852-4.86 0-.404 1.427-4.136 1.581-4.135.077 0 1.413 3.125 2.97 6.945 1.558 3.82 3.85 9.43 5.094 12.469 1.244 3.038 2.261 5.628 2.261 5.755 0 .127-.835.23-1.856.23-1.837 0-1.86-.008-2.252-.86zm-23.144.69c0-.187 2.84-7.16 9.087-22.32l3-7.276 1.497-.08c1.613-.085 1.764.076 1.244 1.324-.217.523-2.064 5.252-9.69 24.817l-1.392 3.572-1.873.078c-1.03.043-1.873-.01-1.873-.115z" style="fill:#666;fill-opacity:1" transform="translate(74.998 -95.009) scale(2.23944)"/>
    <path d="M48.931 80.159c-.144-.328-.904-2.203-1.688-4.167l-1.425-3.572-4.752-.132-4.752-.133.528-1.389.528-1.389h3.669c2.2 0 3.669-.103 3.669-.257 0-.142-.792-2.255-1.76-4.697-.968-2.441-1.762-4.563-1.764-4.714-.002-.152.33-1.15.738-2.218.87-2.28.644-2.506 2.835 2.84.875 2.138 2.547 6.208 3.715 9.046a4260.3 4260.3 0 0 1 3.393 8.268l1.27 3.11h-1.97c-1.79 0-1.995-.056-2.234-.596zm-22.856 0c.18-.565 4.594-11.367 9.11-22.291a524.207 524.207 0 0 0 2.355-5.755c.258-.682.374-.728 1.863-.728h1.587l-.758 2.051c-.781 2.112-4.42 11.45-8.402 21.564l-2.266 5.754h-1.839c-1.786 0-1.833-.017-1.65-.595z" style="fill:#666;fill-opacity:1" transform="translate(73.65 -95.009) scale(2.23944)"/>
  </g>
</svg>
