<?xml version="1.0" encoding="UTF-8" standalone="no"?>
<svg
   width="400"
   height="400"
   viewBox="0 0 105.83337 105.833"
   version="1.1"
   id="svg13"
   sodipodi:docname="aaahive_icon.svg"
   inkscape:version="1.4 (e7c3feb1, 2024-10-09)"
   xmlns:inkscape="http://www.inkscape.org/namespaces/inkscape"
   xmlns:sodipodi="http://sodipodi.sourceforge.net/DTD/sodipodi-0.dtd"
   xmlns="http://www.w3.org/2000/svg"
   xmlns:svg="http://www.w3.org/2000/svg">
  <defs
     id="defs13" />
  <sodipodi:namedview
     id="namedview13"
     pagecolor="#ffffff"
     bordercolor="#000000"
     borderopacity="0.25"
     inkscape:showpageshadow="2"
     inkscape:pageopacity="0.0"
     inkscape:pagecheckerboard="0"
     inkscape:deskcolor="#d1d1d1"
     inkscape:zoom="0.15365854"
     inkscape:cx="1028.2539"
     inkscape:cy="198.49206"
     inkscape:window-width="1728"
     inkscape:window-height="726"
     inkscape:window-x="0"
     inkscape:window-y="38"
     inkscape:window-maximized="0"
     inkscape:current-layer="svg13" />
  <path
     d="m 29.068,51.71 c 0,0 -0.41,-28.121 0.256,-29.586 0.666,-1.466 22.03,-17.121 23.389,-17.14 1.359,-0.019 23,15.04 23.693,16.487 0.693,1.446 0.305,30.147 0.305,30.147"
     style="fill:none;fill-opacity:0.2;stroke:#d60084;stroke-width:8.38734"
     id="path1" />
  <path
     d="m 31.411,30.738 h 42.88 v 0.24 h -42.88 z"
     style="fill:none;fill-opacity:0.2;stroke:#d60084;stroke-width:7.98456;stroke-opacity:1"
     id="path2" />
  <path
     d="m 5.322,104.857 c 0,0 -0.41,-28.121 0.256,-29.586 0.666,-1.466 22.03,-17.121 23.389,-17.14 1.359,-0.019 23,15.04 23.693,16.487 0.693,1.446 0.305,30.147 0.305,30.147"
     style="fill:none;fill-opacity:0.2;stroke:#d60084;stroke-width:8.38734"
     id="path3" />
  <path
     d="m 7.665,83.885 h 42.88 v 0.24 H 7.665 Z"
     style="fill:none;fill-opacity:0.2;stroke:#d60084;stroke-width:7.98456;stroke-opacity:1"
     id="path4" />
  <path
     d="m 52.819,104.905 c 0,0 -0.41,-28.121 0.256,-29.586 0.666,-1.466 22.03,-17.121 23.389,-17.14 1.359,-0.019 23,15.04 23.693,16.487 0.693,1.446 0.305,30.147 0.305,30.147"
     style="fill:none;fill-opacity:0.2;stroke:#d60084;stroke-width:8.38734"
     id="path5" />
  <path
     d="m 55.162,83.933 h 42.88 v 0.24 h -42.88 z"
     style="fill:none;fill-opacity:0.2;stroke:#d60084;stroke-width:7.98456;stroke-opacity:1"
     id="path6" />
</svg>
